<?xml version="1.0" encoding="utf-8"?>
<!-- Generator: Adobe Illustrator 18.1.1, SVG Export Plug-In . SVG Version: 6.00 Build 0)  -->
<svg version="1.1" id="Capa_1" xmlns="http://www.w3.org/2000/svg" xmlns:xlink="http://www.w3.org/1999/xlink" x="0px" y="0px"
	 viewBox="-24.6 100.4 114.3 114.3" enable-background="new -24.6 100.4 114.3 114.3" xml:space="preserve">
<g>
	<path fill="#D2D8D8" d="M80.8,152.1l-21.4,21.4c-11.8,11.8-31,11.8-42.9,0c-1.9-1.9-3.3-4-4.6-6.1l10-10c0.5-0.5,1.1-0.8,1.6-1.1
		c0.7,2.4,1.9,4.6,3.7,6.4c5.9,5.9,15.5,5.9,21.4,0L70,141.4c5.9-5.9,5.9-15.5,0-21.4c-5.9-5.9-15.5-5.9-21.4,0l-7.6,7.6
		c-6.2-2.4-12.9-3.1-19.3-2.1l16.2-16.2c11.8-11.8,31-11.8,42.9,0C92.6,121.1,92.6,140.3,80.8,152.1z M24.1,187.4l-7.6,7.6
		c-5.9,5.9-15.5,5.9-21.4,0c-5.9-5.9-5.9-15.5,0-21.4l21.4-21.4c5.9-5.9,15.5-5.9,21.4,0c1.8,1.8,3.1,4.1,3.7,6.4
		c0.6-0.3,1.1-0.6,1.6-1.1l10-10c-1.3-2.2-2.7-4.3-4.6-6.1c-11.8-11.8-31-11.8-42.9,0l-21.4,21.4c-11.8,11.8-11.8,31,0,42.9
		c11.8,11.8,31,11.8,42.9,0l16.3-16.3C36.9,190.4,30.2,189.8,24.1,187.4z"/>
</g>
</svg>
